<svg width="191" height="53" viewBox="0 0 191 53" fill="none" xmlns="http://www.w3.org/2000/svg">
<g clip-path="url(#clip0_223_2034)">
<path d="M110.584 33.4897H110.38V35.0713H106.477V15.3018H110.431V22.7351H110.635C111.095 21.997 112.294 20.8109 114.437 20.8109C118.06 20.8109 120.535 23.8158 120.535 28.1915C120.535 32.5671 118.009 35.4139 114.335 35.4139C112.09 35.4139 110.967 34.1223 110.584 33.4897ZM116.529 28.1124C116.529 25.9773 115.279 24.5012 113.442 24.5012C111.63 24.5012 110.355 25.8982 110.355 28.1124C110.355 30.1685 111.554 31.7236 113.442 31.7236C115.279 31.7236 116.529 30.2739 116.529 28.1124Z" fill="white"/>
<path d="M121.875 17.3851C121.875 16.0144 122.845 15.1709 124.197 15.1709C125.549 15.1709 126.519 16.0144 126.519 17.3851C126.519 18.7558 125.549 19.5993 124.197 19.5993C122.845 19.5993 121.875 18.7558 121.875 17.3851ZM122.232 21.1545H126.187V35.0723H122.232V21.1545Z" fill="white"/>
<path d="M127.566 28.114C127.566 24.002 130.348 20.8125 134.685 20.8125C138.436 20.8125 141.115 23.1585 141.497 26.5588H137.492C137.311 25.9481 136.941 25.4158 136.438 25.0442C135.935 24.6725 135.328 24.4823 134.71 24.5028C132.771 24.5028 131.572 26.1107 131.572 28.114C131.572 30.1437 132.822 31.7252 134.736 31.7252C136.063 31.7252 137.109 30.9345 137.44 29.8274H141.472C141.038 33.1224 138.41 35.4156 134.71 35.4156C130.373 35.4156 127.566 32.1998 127.566 28.114Z" fill="white"/>
<path d="M142.791 37.5235H144.347C145.418 37.5235 146.031 36.9173 146.388 35.9947L146.618 35.3358L141.285 21.1543H145.418L148.378 29.9848H148.582L151.389 21.1543H155.573L149.858 37.0754C148.939 39.6322 147.409 41.1348 144.576 41.1348H142.791L142.791 37.5235Z" fill="white"/>
<path d="M162.088 35.4156C158.388 35.4156 155.76 33.1224 155.326 29.8274H159.358C159.689 30.9345 160.735 31.7252 162.062 31.7252C163.976 31.7252 165.226 30.1437 165.226 28.114C165.226 26.1107 164.027 24.5028 162.088 24.5028C161.47 24.4823 160.863 24.6725 160.36 25.0442C159.857 25.4158 159.487 25.9481 159.307 26.5588H155.301C155.684 23.1585 158.363 20.8125 162.113 20.8125C166.451 20.8125 169.232 24.002 169.232 28.114C169.232 32.1998 166.425 35.4156 162.088 35.4156Z" fill="white"/>
<path d="M170.859 30.6957V15.3018H174.814V30.2211C174.814 31.0646 175.222 31.4864 175.937 31.4864H176.422V35.0713H175.069C172.365 35.0713 170.859 33.4106 170.859 30.6957Z" fill="white"/>
<path d="M177.109 28.1931C177.109 23.8439 179.916 20.8125 184.024 20.8125C188.463 20.8125 190.785 24.1865 190.785 28.0614V29.2475H180.86C180.988 31.0136 182.238 32.2789 184.1 32.2789C185.657 32.2789 186.703 31.488 187.085 30.6182H190.657C190.045 33.5442 187.596 35.4156 183.947 35.4156C180.043 35.4156 177.109 32.3843 177.109 28.1931ZM187.111 26.5325C186.958 25.0563 185.784 23.9228 184.024 23.9228C183.291 23.9007 182.576 24.1526 182.008 24.632C181.441 25.1114 181.061 25.7863 180.937 26.5325H187.111Z" fill="white"/>
<path d="M36.5316 32.4952C35.2671 35.0683 33.2006 37.1263 30.6653 38.3373C28.13 39.5483 25.2738 39.8417 22.5573 39.1701C19.8409 38.4986 17.4226 36.9012 15.6925 34.6357C13.9625 32.3702 13.0216 29.5686 13.0216 26.683C13.0216 23.7973 13.9625 20.9957 15.6925 18.7302C17.4226 16.4647 19.8409 14.8674 22.5573 14.1958C25.2738 13.5242 28.13 13.8176 30.6653 15.0286C33.2006 16.2396 35.2671 18.2976 36.5316 20.8707H49.9851C48.6028 14.6529 45.053 9.17854 40.0131 5.49216C34.9732 1.80578 28.796 0.165422 22.6602 0.88407C16.5243 1.60272 10.8593 4.63006 6.7461 9.38848C2.63288 14.1469 0.359375 20.3033 0.359375 26.683C0.359375 33.0626 2.63288 39.219 6.7461 43.9774C10.8593 48.7358 16.5243 51.7632 22.6602 52.4818C28.796 53.2005 34.9732 51.5601 40.0131 47.8737C45.053 44.1874 48.6028 38.713 49.9851 32.4952H36.5316Z" fill="#F7475E"/>
<path d="M63.4419 32.4952C64.7063 35.0683 66.7728 37.1263 69.3081 38.3373C71.8434 39.5483 74.6996 39.8417 77.4161 39.1701C80.1325 38.4986 82.5508 36.9012 84.2809 34.6357C86.0109 32.3702 86.9518 29.5686 86.9518 26.683C86.9518 23.7973 86.0109 20.9957 84.2809 18.7302C82.5508 16.4647 80.1325 14.8674 77.4161 14.1958C74.6996 13.5242 71.8434 13.8176 69.3081 15.0286C66.7728 16.2396 64.7063 18.2976 63.4419 20.8707H49.9883C51.3706 14.6529 54.9204 9.17854 59.9603 5.49216C65.0002 1.80578 71.1774 0.165422 77.3133 0.88407C83.4491 1.60272 89.1141 4.63006 93.2273 9.38848C97.3405 14.1469 99.614 20.3033 99.614 26.683C99.614 33.0626 97.3405 39.219 93.2273 43.9774C89.1141 48.7358 83.4491 51.7632 77.3133 52.4818C71.1774 53.2005 65.0002 51.5601 59.9603 47.8737C54.9204 44.1874 51.3706 38.713 49.9883 32.4952H63.4419Z" fill="#F7475E"/>
</g>
<defs>
<clipPath id="clip0_223_2034">
<rect width="190.404" height="51.9283" fill="white" transform="translate(0.378906 0.717773)"/>
</clipPath>
</defs>
</svg>
